<?xml version="1.0" encoding="UTF-8"?>
<svg xmlns="http://www.w3.org/2000/svg" xml:space="preserve" width="850px" height="354px" version="1.1" shape-rendering="geometricPrecision" text-rendering="geometricPrecision" image-rendering="optimizeQuality" fill-rule="evenodd" clip-rule="evenodd"
viewBox="0 0 850 354">
<defs>
  <style type="text/css">
   <![CDATA[
    .el {fill:#fff}
    .pass {fill:#ff9800}
    .label {fill:#949494; fill-rule:nonzero}
   ]]>
  </style>
 </defs>
<g>
<path class="el" fill-rule="nonzero" d="M337 155l20 -38c8,0 17,0 22,5 4,5 5,14 1,21 -7,14 -25,12 -43,12zm289 -19c0,-8 0,-15 3,-22 4,-11 6,-11 9,-16 -23,-16 -58,-21 -84,-8 -19,9 -31,29 -27,50 6,27 45,31 56,41 10,9 -3,24 -31,14 -14,-5 -20,-13 -24,-15l6 42c13,6 19,9 36,9 13,0 26,-4 35,-9 26,-16 33,-53 5,-71 -4,-3 -10,-6 -15,-8 -5,-2 -11,-4 -16,-6 -5,-2 -12,-5 -12,-10 0,-14 28,-16 53,5 1,1 4,4 6,5l0 0zm-150 -5l5 40 -28 0c1,-3 9,-17 12,-20 4,-7 8,-14 12,-20l0 0zm-95 97l39 0c3,-6 13,-20 15,-26l50 0 3 25c4,1 32,1 37,0l-20 -143c-4,0 -33,-1 -34,0 -2,1 -42,67 -43,69 -10,17 -24,38 -34,55 -2,4 -11,16 -12,19zm372 -126c-2,-2 -4,-4 -7,-5 -7,-5 -16,-9 -25,-11 -20,-5 -43,-4 -60,7 -16,9 -27,28 -22,48 3,13 13,20 24,25 8,4 28,10 33,15 6,5 2,12 -3,15 -14,7 -38,-3 -49,-14 -1,-1 -2,-2 -3,-3 2,20 -11,34 -12,38 3,1 7,4 11,6 29,13 75,13 94,-17 5,-8 9,-20 6,-32 -4,-22 -26,-28 -43,-35 -7,-3 -24,-9 -14,-19 7,-7 23,-4 32,0 11,5 21,14 23,16l17 -33 0 0zm-432 84c24,-1 45,3 66,-6 39,-17 44,-72 12,-91 -9,-5 -20,-5 -31,-5 -12,0 -24,0 -36,0 -1,4 -36,70 -37,72 -6,12 -12,24 -19,36 -3,5 -17,33 -18,36l42 0 21 -42 0 0z"/>
<path class="pass" fill-rule="nonzero" d="M109 178l76 0 -11 24c-2,5 -7,8 -12,8l-55 0c6,40 40,70 81,70 19,0 37,-7 52,-19 0,0 1,-1 2,-1l39 0c1,0 2,1 2,1 0,1 0,2 0,3 -22,31 -57,50 -95,50 -64,0 -116,-52 -116,-116 0,-38 18,-73 49,-95 29,-21 66,-27 101,-16 1,0 1,1 2,2 0,1 0,2 0,2 -5,9 -10,17 -14,26 -1,1 -2,2 -3,1 -22,-4 -46,0 -65,13 -17,11 -28,28 -33,48l0 0z"/>
<path class="pass" fill-rule="nonzero" d="M185 229c10,1 19,1 29,2 10,1 16,-12 24,-29 28,-59 62,-119 91,-177 -42,-1 -37,-5 -49,20l-95 184 0 0z"/>
<path class="label" fill-rule="nonzero" d="M359 298l11 0 -14 -38 -13 0 -14 38 10 0 3 -8 13 0 3 8zm-9 -30l1 0 4 14 -9 0 4 -14 0 0z"/>
<polygon id="_1" class="label" points="372,298 383,298 390,286 391,286 398,298 410,298 397,279 397,279 410,260 399,260 391,273 391,273 384,260 372,260 384,279 384,279 "/>
<polygon id="_2" class="label" points="442,290 424,290 424,283 440,283 440,275 424,275 424,268 442,268 442,260 414,260 414,298 442,298 "/>
<path id="_3" class="label" d="M445 287c0,7 7,12 17,12 11,0 17,-5 17,-13 0,-6 -4,-9 -12,-11l-5 -1c-4,-1 -6,-2 -6,-4 0,-3 2,-4 6,-4 4,0 6,2 7,5l9 0c0,-7 -7,-12 -16,-12 -10,0 -16,5 -16,12 0,6 4,10 11,11l5 1c5,1 6,2 6,4 0,3 -3,4 -6,4 -4,0 -7,-2 -7,-5l-10 0 0 0z"/>
<path id="_4" class="label" d="M515 299c3,0 5,0 7,-1l2 3 10 0 -5 -7c4,-3 6,-9 6,-15 0,-12 -8,-20 -20,-20 -12,0 -20,8 -20,20 0,12 8,20 20,20zm0 -8c-6,0 -9,-5 -9,-12 0,-7 4,-12 9,-12 6,0 9,5 9,12 0,3 -1,5 -2,7l-1 -1 -9 0 4 6c-1,0 -1,0 -2,0l0 0z"/>
<path id="_5" class="label" d="M557 259c-12,0 -20,8 -20,20 0,12 8,20 20,20 12,0 20,-8 20,-20 0,-12 -8,-20 -20,-20zm0 8c6,0 9,5 9,12 0,7 -4,12 -9,12 -6,0 -9,-5 -9,-12 0,-7 4,-12 9,-12z"/>
<polygon id="_6" class="label" points="591,298 591,276 592,276 608,298 617,298 617,260 607,260 607,281 606,281 589,260 581,260 581,298 "/>
<polygon id="_7" class="label" points="642,298 642,268 654,268 654,260 620,260 620,268 632,268 632,298 "/>
<path id="_8" class="label" d="M668 267l6 0c4,0 6,2 6,5 0,3 -2,5 -6,5l-6 0 0 -11 0 0zm0 18l5 0 0 0 7 13 12 0 -8 -15c4,-2 7,-6 7,-11 0,-8 -6,-13 -15,-13l-18 0 0 38 10 0 0 -13 0 0z"/>
<path id="_9" class="label" d="M713 259c-12,0 -20,8 -20,20 0,12 8,20 20,20 12,0 20,-8 20,-20 0,-12 -8,-20 -20,-20zm0 8c6,0 9,5 9,12 0,7 -4,12 -9,12 -6,0 -9,-5 -9,-12 0,-7 4,-12 9,-12z"/>
<polygon id="_10" class="label" points="765,290 748,290 748,260 737,260 737,298 765,298 "/>
</g>
</svg>
